<?xml version="1.0" encoding="UTF-8" standalone="no"?>
<!-- Created with Inkscape (http://www.inkscape.org/) -->

<svg
   width="1015"
   height="256"
   viewBox="0 0 268.55209 67.733334"
   version="1.1"
   id="svg1"
   inkscape:version="1.4 (e7c3feb, 2024-10-09)"
   sodipodi:docname="ReddCoin-Logo-Mono.svg"
   xmlns:inkscape="http://www.inkscape.org/namespaces/inkscape"
   xmlns:sodipodi="http://sodipodi.sourceforge.net/DTD/sodipodi-0.dtd"
   xmlns="http://www.w3.org/2000/svg"
   xmlns:svg="http://www.w3.org/2000/svg">
  <sodipodi:namedview
     id="namedview1"
     pagecolor="#ffffff"
     bordercolor="#000000"
     borderopacity="0.25"
     inkscape:showpageshadow="2"
     inkscape:pageopacity="0.0"
     inkscape:pagecheckerboard="0"
     inkscape:deskcolor="#d1d1d1"
     inkscape:document-units="px"
     showguides="true"
     inkscape:zoom="1.463243"
     inkscape:cx="723.39318"
     inkscape:cy="352.98307"
     inkscape:window-width="2901"
     inkscape:window-height="1596"
     inkscape:window-x="595"
     inkscape:window-y="324"
     inkscape:window-maximized="0"
     inkscape:current-layer="layer1">
    <sodipodi:guide
       position="2.066287,65.609651"
       orientation="0,-1"
       id="guide1"
       inkscape:locked="false" />
    <sodipodi:guide
       position="2.1045516,67.331557"
       orientation="1,0"
       id="guide2"
       inkscape:locked="false" />
    <sodipodi:guide
       position="8.5138677,2.3391776"
       orientation="0,-1"
       id="guide4"
       inkscape:locked="false" />
    <sodipodi:guide
       position="-24.303945,32.676736"
       orientation="0,-1"
       id="guide3"
       inkscape:locked="false" />
    <sodipodi:guide
       position="67.733332,29.662289"
       orientation="1,0"
       id="guide5"
       inkscape:locked="false" />
    <sodipodi:guide
       position="69.845495,50.015519"
       orientation="1,0"
       id="guide6"
       inkscape:locked="false" />
    <sodipodi:guide
       position="262.20792,25.609861"
       orientation="1,0"
       id="guide7"
       inkscape:locked="false" />
    <sodipodi:guide
       position="65.615423,95.978772"
       orientation="1,0"
       id="guide8"
       inkscape:locked="false" />
  </sodipodi:namedview>
  <defs
     id="defs1">
    <rect
       x="-376.34979"
       y="-223.19798"
       width="1162.2917"
       height="541.96747"
       id="rect2" />
  </defs>
  <g
     inkscape:label="Layer 1"
     inkscape:groupmode="layer"
     id="layer1"
     transform="translate(-9.8309213,-116.78877)">
    <g
       id="pinwheel"
       transform="matrix(0.24057092,0,0,0.23868518,9.0503765,116.30544)">
      <path
         id="path2"
         d="m 1197.51,2062.82 c -38.57,4.57 -77.76,7.19 -117.57,7.19 -359.635,0 -674.436,-191.8 -847.823,-478.65 l 321.028,-395.41 793.405,327.39 -149.04,539.48"
         style="fill:#888888;fill-opacity:1;fill-rule:nonzero;stroke:none"
         transform="matrix(0.13333333,0,0,-0.13333333,0,288)" />
      <path
         id="path3"
         d="M 1346.55,1523.34 553.145,1195.95 1035.81,601.512 1505.84,946.75 1346.55,1523.34"
         style="fill:#444444;fill-opacity:1;fill-rule:nonzero;stroke:none"
         transform="matrix(0.13333333,0,0,-0.13333333,0,288)" />
      <path
         id="path4"
         d="M 232.117,1591.36 C 141.91,1442.08 89.9453,1267.12 89.9453,1080.01 c 0,-24.9 1.2266,-49.49 3.0235,-73.93 l 460.1762,189.87 -321.028,395.41"
         style="fill:#666666;fill-opacity:1;fill-rule:nonzero;stroke:none"
         transform="matrix(0.13333333,0,0,-0.13333333,0,288)" />
      <path
         id="path5"
         d="m 2036.24,1336.36 c -103.15,385.76 -433.37,678.48 -838.73,726.46 l 308.33,-1116.07 530.4,389.61"
         style="fill:#bbbbbb;fill-opacity:1;fill-rule:nonzero;stroke:none"
         transform="matrix(0.13333333,0,0,-0.13333333,0,288)" />
      <path
         id="path6"
         d="m 1505.84,946.75 179.5,-649.828 c 233.88,181.098 384.61,464.418 384.61,783.088 0,88.69 -11.82,174.59 -33.71,256.35 l -530.4,-389.61"
         style="fill:#999999;fill-opacity:1;fill-rule:nonzero;stroke:none"
         transform="matrix(0.13333333,0,0,-0.13333333,0,288)" />
      <path
         id="path7"
         d="m 1035.81,601.512 370.4,-456.211 c 101.64,35.469 195.66,87.008 279.13,151.621 L 1505.84,946.75 1035.81,601.512"
         style="fill:#555555;fill-opacity:1;fill-rule:nonzero;stroke:none"
         transform="matrix(0.13333333,0,0,-0.13333333,0,288)" />
      <path
         id="path8"
         d="M 553.145,1195.95 92.9688,1006.08 C 116.68,685.48 292.898,407.512 549.508,244.289 L 1035.81,601.512 553.145,1195.95"
         style="fill:#777777;fill-opacity:1;fill-rule:nonzero;stroke:none"
         transform="matrix(0.13333333,0,0,-0.13333333,0,288)" />
      <path
         id="path9"
         d="M 549.508,244.289 C 702.852,146.73 884.734,89.9883 1079.94,89.9883 c 114.37,0 224.09,19.6327 326.27,55.3127 L 1035.81,601.512 549.508,244.289"
         style="display:inline;fill:#aaaaaa;fill-opacity:1;fill-rule:nonzero;stroke:none"
         transform="matrix(0.13333333,0,0,-0.13333333,0,288)" />
    </g>
    <g
       id="Coin"
       style="fill:#717171"
       transform="translate(-3.3654127,-1.0090061)">
      <path
         style="font-weight:600;font-size:45.1556px;font-family:Goldplay;-inkscape-font-specification:'Goldplay, Semi-Bold';stroke-width:0.265"
         d="m 270.32175,144.38775 c -3.34151,0 -5.73476,1.44498 -7.22489,3.61245 v -1.5353 c 0,-1.08373 -0.63218,-1.71591 -1.71592,-1.71591 h -1.71591 c -1.08373,0 -1.71591,0.63218 -1.71591,1.71591 v 19.3266 c 0,1.08374 0.63218,1.76107 1.71591,1.76107 h 2.61903 c 1.08373,0 1.67075,-0.67733 1.67075,-1.76107 v -11.2889 c 0,-2.98027 1.98685,-4.96711 4.92196,-4.96711 2.93512,0 4.74134,1.98684 4.74134,4.96711 v 11.2889 c 0,1.08374 0.63218,1.76107 1.71592,1.76107 h 2.61902 c 1.08373,0 1.67076,-0.67733 1.67076,-1.76107 V 154.051 c 0,-5.77992 -3.70276,-9.6633 -9.30206,-9.6633 z"
         id="path21" />
      <path
         id="path19"
         style="font-weight:600;font-size:45.1556px;font-family:Goldplay;-inkscape-font-specification:'Goldplay, Semi-Bold';stroke-width:0.265"
         d="m 250.72427,140.95592 c 2.12232,0 3.88339,-1.71591 3.88339,-3.88338 0,-2.12231 -1.76107,-3.88338 -3.88339,-3.88338 -2.16746,0 -3.88338,1.76107 -3.88338,3.88338 0,2.16747 1.71592,3.88338 3.88338,3.88338 z m -1.30951,26.59665 h 2.61903 c 1.08373,0 1.67075,-0.67733 1.67075,-1.76107 v -19.3266 c 0,-1.08373 -0.58702,-1.71591 -1.67075,-1.71591 h -2.61903 c -1.08373,0 -1.71591,0.63218 -1.71591,1.71591 v 19.3266 c 0,1.08374 0.63218,1.76107 1.71591,1.76107 z" />
      <path
         id="path17"
         style="font-weight:600;font-size:45.1556px;font-family:Goldplay;-inkscape-font-specification:'Goldplay, Semi-Bold';stroke-width:0.265"
         d="m 232.07503,168.13959 c 7.13459,0 12.32748,-5.10258 12.32748,-11.87592 0,-6.77334 -5.19289,-11.87592 -12.32748,-11.87592 -7.13458,0 -12.37263,5.10258 -12.37263,11.87592 0,6.77334 5.23805,11.87592 12.37263,11.87592 z m 0,-5.23805 c -3.74791,0 -6.41209,-2.79964 -6.41209,-6.63787 0,-3.83823 2.70933,-6.68303 6.41209,-6.68303 3.70276,0 6.36694,2.8448 6.36694,6.68303 0,3.83823 -2.66418,6.63787 -6.36694,6.63787 z" />
      <path
         style="font-weight:600;font-size:45.1556px;font-family:Goldplay;-inkscape-font-specification:'Goldplay, Semi-Bold';stroke-width:0.265"
         d="m 206.8783,168.09439 c 4.56071,0 8.53441,-1.76107 11.2889,-4.69618 0.8128,-0.76765 0.76764,-1.71592 -0.0903,-2.43841 l -1.62561,-1.35467 c -0.85795,-0.72248 -1.6256,-0.63217 -2.48355,0.13547 -1.80623,1.76107 -4.24463,2.8448 -6.99912,2.8448 -5.37352,0 -9.57299,-4.064 -9.57299,-9.70845 0,-5.64445 4.19947,-9.70845 9.57299,-9.70845 2.75449,0 5.14774,1.08373 6.99912,2.8448 0.85795,0.72249 1.6256,0.8128 2.48355,0.13547 l 1.62561,-1.39983 c 0.85795,-0.67733 0.90311,-1.6256 0.0903,-2.4384 -2.75449,-2.88996 -6.72819,-4.65103 -11.24375,-4.65103 -8.8505,0 -15.7593,6.50241 -15.7593,15.21744 0,8.71503 6.9088,15.21744 15.71415,15.21744 z"
         id="path16" />
    </g>
    <g
       id="Redd"
       style="fill:#717171"
       transform="translate(-3.3654127,-1.0090061)">
      <path
         id="path14"
         style="font-weight:600;font-size:45.1556px;font-family:Goldplay;-inkscape-font-specification:'Goldplay, Semi-Bold';stroke-width:0.265"
         d="m 185.7004,135.35658 -2.52871,0.45155 c -1.08373,0.27094 -1.67076,0.72249 -1.67076,1.76107 v 9.03112 c -1.85138,-1.35467 -4.15431,-2.21262 -6.72818,-2.21262 -6.63788,0 -11.37921,5.19289 -11.37921,11.87592 0,6.63787 4.74133,11.87592 11.37921,11.87592 3.16089,0 5.73476,-1.30951 7.54098,-3.29636 v 0.94827 c 0,1.08374 0.58703,1.76107 1.67076,1.76107 h 1.80622 c 1.08374,0 1.71592,-0.67733 1.71592,-1.76107 v -28.76412 c 0,-1.17404 -0.58703,-1.89653 -1.80623,-1.67075 z m -10.0697,27.54491 c -3.79307,0 -6.27662,-2.93511 -6.27662,-6.63787 0,-3.70276 2.48355,-6.68303 6.27662,-6.68303 3.43183,0 6.23148,2.39325 6.23148,6.68303 0,4.24463 -2.79965,6.63787 -6.23148,6.63787 z" />
      <path
         id="path12"
         style="font-weight:600;font-size:45.1556px;font-family:Goldplay;-inkscape-font-specification:'Goldplay, Semi-Bold';stroke-width:0.265"
         d="m 158.11041,135.35658 -2.52871,0.45155 c -1.08373,0.27094 -1.67076,0.72249 -1.67076,1.76107 v 9.03112 c -1.85138,-1.35467 -4.15431,-2.21262 -6.72818,-2.21262 -6.63787,0 -11.37921,5.19289 -11.37921,11.87592 0,6.63787 4.74134,11.87592 11.37921,11.87592 3.16089,0 5.73476,-1.30951 7.54098,-3.29636 v 0.94827 c 0,1.08374 0.58703,1.76107 1.67076,1.76107 h 1.80623 c 1.08373,0 1.71591,-0.67733 1.71591,-1.76107 v -28.76412 c 0,-1.17404 -0.58702,-1.89653 -1.80623,-1.67075 z m -10.06969,27.54491 c -3.79307,0 -6.27663,-2.93511 -6.27663,-6.63787 0,-3.70276 2.48356,-6.68303 6.27663,-6.68303 3.43182,0 6.23147,2.39325 6.23147,6.68303 0,4.24463 -2.79965,6.63787 -6.23147,6.63787 z" />
      <path
         id="path10"
         style="font-weight:600;font-size:45.1556px;font-family:Goldplay;-inkscape-font-specification:'Goldplay, Semi-Bold';stroke-width:0.265"
         d="m 116.61245,157.61829 h 15.62384 c 1.35467,0 1.85138,-0.58702 1.85138,-1.85138 0,-3.16089 -1.17404,-6.14116 -3.29636,-8.21832 -1.94169,-1.94169 -4.83165,-3.16089 -8.26347,-3.16089 -6.8185,0 -11.83077,5.05742 -11.83077,11.87592 0,7.2249 5.50898,11.87592 12.28232,11.87592 3.20605,0 7.2249,-1.08373 9.52784,-3.43182 0.49671,-0.54187 0.85795,-1.2192 0,-2.07716 l -1.08374,-1.08373 c -0.72249,-0.76765 -1.35467,-0.63218 -2.16747,0 -1.98684,1.53529 -3.97369,2.032 -5.73476,2.032 -3.47698,0 -6.54756,-2.12232 -6.90881,-5.96054 z m 5.82508,-8.80534 c 1.71591,0 3.16089,0.58702 4.15431,1.67075 0.85796,0.85796 1.39983,2.03201 1.6256,3.43183 h -11.55983 c 0.45156,-3.11574 2.66418,-5.10258 5.77992,-5.10258 z" />
      <path
         id="text1"
         style="font-weight:600;font-size:45.1556px;font-family:Goldplay;-inkscape-font-specification:'Goldplay, Semi-Bold';stroke-width:0.265"
         d="m 104.46567,155.45082 c 3.79307,-1.2192 6.14116,-4.01885 6.14116,-8.12801 0,-5.64445 -3.83822,-9.12143 -11.108275,-9.12143 H 89.067611 c -1.12889,0 -1.806224,0.63218 -1.806224,1.76107 v 25.78385 c 0,1.12889 0.632179,1.80622 1.761069,1.80622 h 2.619024 c 1.12889,0 1.715913,-0.67733 1.715913,-1.80622 v -9.57299 h 4.967116 l 5.418671,9.75361 c 0.63218,1.12889 0.90311,1.6256 2.07716,1.6256 h 3.29636 c 1.08373,0 1.71591,-0.63218 1.08373,-1.80622 z M 93.357393,143.25881 h 6.412096 c 2.799651,0 4.605871,1.71591 4.605871,4.33493 0,2.57387 -1.80622,4.24463 -4.605871,4.24463 h -6.412096 z" />
    </g>
  </g>
</svg>
