<?xml version="1.0" encoding="UTF-8" standalone="no"?>
<!-- Created with Inkscape (http://www.inkscape.org/) -->

<svg
   width="1015"
   height="256"
   viewBox="0 0 268.55209 67.733334"
   version="1.1"
   id="svg1"
   inkscape:version="1.4 (e7c3feb, 2024-10-09)"
   sodipodi:docname="ReddCoin-Logo-White-tag.svg"
   xmlns:inkscape="http://www.inkscape.org/namespaces/inkscape"
   xmlns:sodipodi="http://sodipodi.sourceforge.net/DTD/sodipodi-0.dtd"
   xmlns="http://www.w3.org/2000/svg"
   xmlns:svg="http://www.w3.org/2000/svg">
  <sodipodi:namedview
     id="namedview1"
     pagecolor="#ffffff"
     bordercolor="#000000"
     borderopacity="0.25"
     inkscape:showpageshadow="2"
     inkscape:pageopacity="0.0"
     inkscape:pagecheckerboard="0"
     inkscape:deskcolor="#d1d1d1"
     inkscape:document-units="px"
     showguides="true"
     inkscape:zoom="8.2229379"
     inkscape:cx="69.19668"
     inkscape:cy="251.85646"
     inkscape:window-width="2230"
     inkscape:window-height="1211"
     inkscape:window-x="1751"
     inkscape:window-y="316"
     inkscape:window-maximized="0"
     inkscape:current-layer="layer1">
    <sodipodi:guide
       position="31.332414,0"
       orientation="0,-1"
       id="guide4"
       inkscape:locked="false" />
    <sodipodi:guide
       position="18.135898,67.733327"
       orientation="0,-1"
       id="guide7"
       inkscape:locked="false" />
    <sodipodi:guide
       position="0.016720757,69.338523"
       orientation="1,0"
       id="guide8"
       inkscape:locked="false" />
  </sodipodi:namedview>
  <defs
     id="defs1">
    <rect
       x="-376.34979"
       y="-223.19798"
       width="1162.2917"
       height="541.96747"
       id="rect2" />
    <clipPath
       clipPathUnits="userSpaceOnUse"
       id="clipPath72">
      <path
         d="M 0,198 H 522 V 0 H 0 Z"
         transform="translate(-55.024426,-19.550798)"
         id="path72" />
    </clipPath>
    <clipPath
       clipPathUnits="userSpaceOnUse"
       id="clipPath70">
      <path
         d="M 0,198 H 522 V 0 H 0 Z"
         transform="translate(-49.941376,-22.699201)"
         id="path70" />
    </clipPath>
    <clipPath
       clipPathUnits="userSpaceOnUse"
       id="clipPath68">
      <path
         d="M 0,198 H 522 V 0 H 0 Z"
         transform="translate(-155.14553,-25.419901)"
         id="path68" />
    </clipPath>
    <clipPath
       clipPathUnits="userSpaceOnUse"
       id="clipPath66">
      <path
         d="M 0,198 H 522 V 0 H 0 Z"
         transform="translate(-192.21293,-99.000002)"
         id="path66" />
    </clipPath>
    <clipPath
       clipPathUnits="userSpaceOnUse"
       id="clipPath64">
      <path
         d="M 0,198 H 522 V 0 H 0 Z"
         transform="translate(-115.61333,-189.3555)"
         id="path64" />
    </clipPath>
    <clipPath
       clipPathUnits="userSpaceOnUse"
       id="clipPath62">
      <path
         d="M 0,198 H 522 V 0 H 0 Z"
         transform="translate(-9.0596252,-96.003902)"
         id="path62" />
    </clipPath>
    <clipPath
       clipPathUnits="userSpaceOnUse"
       id="clipPath60">
      <path
         d="M 0,198 H 522 V 0 H 0 Z"
         transform="translate(-138.0225,-87.3994)"
         id="path60" />
    </clipPath>
    <clipPath
       clipPathUnits="userSpaceOnUse"
       id="clipPath58">
      <path
         d="M 0,198 H 522 V 0 H 0 Z"
         transform="translate(-51.236326,-113.4072)"
         id="path58" />
    </clipPath>
  </defs>
  <g
     inkscape:label="Layer 1"
     inkscape:groupmode="layer"
     id="layer1"
     transform="translate(-9.8309213,-116.78877)">
    <g
       id="pinwheel"
       transform="matrix(0.24057092,0,0,0.23868518,9.0503765,116.30544)"
       style="display:inline">
      <path
         id="path57"
         d="M 0,0 71.456,29.484 58.403,76.736 c -3.107,0.312 -6.08,0.465 -9.035,0.465 -31.711,0 -60.512,-15.901 -77.43,-42.64 z"
         style="fill:#FFFFFF;fill-opacity:1;fill-rule:nonzero;stroke:none"
         transform="matrix(1.4409468,0,0,-1.4409348,72.853547,123.24025)"
         clip-path="url(#clipPath58)" />
      <path
         id="path59"
         d="m 0,0 -13.841,50.105 -69.296,-28.594 42,-51.727 z"
         style="fill:#FFFFFF;fill-opacity:1;fill-rule:nonzero;stroke:none"
         transform="matrix(1.4409468,0,0,-1.4409348,197.90781,160.71579)"
         clip-path="url(#clipPath60)" />
      <path
         id="path61"
         d="M 0,0 36.824,15.193 11.111,46.862 C 3.791,33.457 -0.06,18.376 -0.06,2.996 -0.06,2.029 -0.042,1.042 0,0"
         style="fill:#FFFFFF;fill-opacity:1;fill-rule:nonzero;stroke:none"
         transform="matrix(1.4409468,0,0,-1.4409348,12.079163,148.31731)"
         clip-path="url(#clipPath62)" />
      <path
         id="path63"
         d="m 0,0 27.194,-98.439 45.777,33.625 C 63.222,-31.214 34.4,-5.717 0,0"
         style="fill:#FFFFFF;fill-opacity:1;fill-rule:nonzero;stroke:none"
         transform="matrix(1.4409468,0,0,-1.4409348,165.61739,13.803713)"
         clip-path="url(#clipPath64)" />
      <path
         id="path65"
         d="m 0,0 c 0,6.637 -0.723,13.262 -2.15,19.742 l -45.674,-33.549 15.476,-56.024 C -11.737,-52.361 0,-27.143 0,0"
         style="fill:#FFFFFF;fill-opacity:1;fill-rule:nonzero;stroke:none"
         transform="matrix(1.4409468,0,0,-1.4409348,275.99334,144.00012)"
         clip-path="url(#clipPath66)" />
      <path
         id="path67"
         d="M 0,0 -15.542,56.257 -54.76,27.451 -22.524,-12.25 C -14.479,-9.249 -6.918,-5.136 0,0"
         style="fill:#FFFFFF;fill-opacity:1;fill-rule:nonzero;stroke:none"
         transform="matrix(1.4409468,0,0,-1.4409348,222.58118,250.02419)"
         clip-path="url(#clipPath68)" />
      <path
         id="path69"
         d="M 0,0 42.467,31.196 -0.408,84.002 -40.491,67.464 C -37.862,40.204 -22.877,15.23 0,0"
         style="fill:#FFFFFF;fill-opacity:1;fill-rule:nonzero;stroke:none"
         transform="matrix(1.4409468,0,0,-1.4409348,70.987595,253.9446)"
         clip-path="url(#clipPath70)" />
      <path
         id="path71"
         d="m 0,0 c 13.849,-7.967 29.521,-12.159 45.58,-12.159 8.981,0 17.843,1.306 26.404,3.889 L 40.885,30.031 Z"
         style="fill:#FFFFFF;fill-opacity:1;fill-rule:nonzero;stroke:none"
         transform="matrix(1.4409468,0,0,-1.4409348,78.312,258.48123)"
         clip-path="url(#clipPath72)" />
    </g>
    <g
       id="ReddCoin"
       transform="translate(-0.56834201,-10.178713)">
      <g
         id="Coin"
         style="fill:#FFFFFF"
         transform="translate(-3.3654127,-1.0090061)">
        <path
           style="font-weight:600;font-size:45.1556px;font-family:Goldplay;-inkscape-font-specification:'Goldplay, Semi-Bold';stroke-width:0.265"
           d="m 270.32175,144.38775 c -3.34151,0 -5.73476,1.44498 -7.22489,3.61245 v -1.5353 c 0,-1.08373 -0.63218,-1.71591 -1.71592,-1.71591 h -1.71591 c -1.08373,0 -1.71591,0.63218 -1.71591,1.71591 v 19.3266 c 0,1.08374 0.63218,1.76107 1.71591,1.76107 h 2.61903 c 1.08373,0 1.67075,-0.67733 1.67075,-1.76107 v -11.2889 c 0,-2.98027 1.98685,-4.96711 4.92196,-4.96711 2.93512,0 4.74134,1.98684 4.74134,4.96711 v 11.2889 c 0,1.08374 0.63218,1.76107 1.71592,1.76107 h 2.61902 c 1.08373,0 1.67076,-0.67733 1.67076,-1.76107 V 154.051 c 0,-5.77992 -3.70276,-9.6633 -9.30206,-9.6633 z"
           id="path21" />
        <path
           id="path19"
           style="font-weight:600;font-size:45.1556px;font-family:Goldplay;-inkscape-font-specification:'Goldplay, Semi-Bold';stroke-width:0.265"
           d="m 250.72427,140.95592 c 2.12232,0 3.88339,-1.71591 3.88339,-3.88338 0,-2.12231 -1.76107,-3.88338 -3.88339,-3.88338 -2.16746,0 -3.88338,1.76107 -3.88338,3.88338 0,2.16747 1.71592,3.88338 3.88338,3.88338 z m -1.30951,26.59665 h 2.61903 c 1.08373,0 1.67075,-0.67733 1.67075,-1.76107 v -19.3266 c 0,-1.08373 -0.58702,-1.71591 -1.67075,-1.71591 h -2.61903 c -1.08373,0 -1.71591,0.63218 -1.71591,1.71591 v 19.3266 c 0,1.08374 0.63218,1.76107 1.71591,1.76107 z" />
        <path
           id="path17"
           style="font-weight:600;font-size:45.1556px;font-family:Goldplay;-inkscape-font-specification:'Goldplay, Semi-Bold';stroke-width:0.265"
           d="m 232.07503,168.13959 c 7.13459,0 12.32748,-5.10258 12.32748,-11.87592 0,-6.77334 -5.19289,-11.87592 -12.32748,-11.87592 -7.13458,0 -12.37263,5.10258 -12.37263,11.87592 0,6.77334 5.23805,11.87592 12.37263,11.87592 z m 0,-5.23805 c -3.74791,0 -6.41209,-2.79964 -6.41209,-6.63787 0,-3.83823 2.70933,-6.68303 6.41209,-6.68303 3.70276,0 6.36694,2.8448 6.36694,6.68303 0,3.83823 -2.66418,6.63787 -6.36694,6.63787 z" />
        <path
           style="font-weight:600;font-size:45.1556px;font-family:Goldplay;-inkscape-font-specification:'Goldplay, Semi-Bold';stroke-width:0.265"
           d="m 206.8783,168.09439 c 4.56071,0 8.53441,-1.76107 11.2889,-4.69618 0.8128,-0.76765 0.76764,-1.71592 -0.0903,-2.43841 l -1.62561,-1.35467 c -0.85795,-0.72248 -1.6256,-0.63217 -2.48355,0.13547 -1.80623,1.76107 -4.24463,2.8448 -6.99912,2.8448 -5.37352,0 -9.57299,-4.064 -9.57299,-9.70845 0,-5.64445 4.19947,-9.70845 9.57299,-9.70845 2.75449,0 5.14774,1.08373 6.99912,2.8448 0.85795,0.72249 1.6256,0.8128 2.48355,0.13547 l 1.62561,-1.39983 c 0.85795,-0.67733 0.90311,-1.6256 0.0903,-2.4384 -2.75449,-2.88996 -6.72819,-4.65103 -11.24375,-4.65103 -8.8505,0 -15.7593,6.50241 -15.7593,15.21744 0,8.71503 6.9088,15.21744 15.71415,15.21744 z"
           id="path16" />
      </g>
      <g
         id="Redd"
         style="fill:#FFFFFF"
         transform="translate(-3.3654127,-1.0090061)">
        <path
           id="path14"
           style="font-weight:600;font-size:45.1556px;font-family:Goldplay;-inkscape-font-specification:'Goldplay, Semi-Bold';stroke-width:0.265"
           d="m 185.7004,135.35658 -2.52871,0.45155 c -1.08373,0.27094 -1.67076,0.72249 -1.67076,1.76107 v 9.03112 c -1.85138,-1.35467 -4.15431,-2.21262 -6.72818,-2.21262 -6.63788,0 -11.37921,5.19289 -11.37921,11.87592 0,6.63787 4.74133,11.87592 11.37921,11.87592 3.16089,0 5.73476,-1.30951 7.54098,-3.29636 v 0.94827 c 0,1.08374 0.58703,1.76107 1.67076,1.76107 h 1.80622 c 1.08374,0 1.71592,-0.67733 1.71592,-1.76107 v -28.76412 c 0,-1.17404 -0.58703,-1.89653 -1.80623,-1.67075 z m -10.0697,27.54491 c -3.79307,0 -6.27662,-2.93511 -6.27662,-6.63787 0,-3.70276 2.48355,-6.68303 6.27662,-6.68303 3.43183,0 6.23148,2.39325 6.23148,6.68303 0,4.24463 -2.79965,6.63787 -6.23148,6.63787 z" />
        <path
           id="path12"
           style="font-weight:600;font-size:45.1556px;font-family:Goldplay;-inkscape-font-specification:'Goldplay, Semi-Bold';stroke-width:0.265"
           d="m 158.11041,135.35658 -2.52871,0.45155 c -1.08373,0.27094 -1.67076,0.72249 -1.67076,1.76107 v 9.03112 c -1.85138,-1.35467 -4.15431,-2.21262 -6.72818,-2.21262 -6.63787,0 -11.37921,5.19289 -11.37921,11.87592 0,6.63787 4.74134,11.87592 11.37921,11.87592 3.16089,0 5.73476,-1.30951 7.54098,-3.29636 v 0.94827 c 0,1.08374 0.58703,1.76107 1.67076,1.76107 h 1.80623 c 1.08373,0 1.71591,-0.67733 1.71591,-1.76107 v -28.76412 c 0,-1.17404 -0.58702,-1.89653 -1.80623,-1.67075 z m -10.06969,27.54491 c -3.79307,0 -6.27663,-2.93511 -6.27663,-6.63787 0,-3.70276 2.48356,-6.68303 6.27663,-6.68303 3.43182,0 6.23147,2.39325 6.23147,6.68303 0,4.24463 -2.79965,6.63787 -6.23147,6.63787 z" />
        <path
           id="path10"
           style="font-weight:600;font-size:45.1556px;font-family:Goldplay;-inkscape-font-specification:'Goldplay, Semi-Bold';stroke-width:0.265"
           d="m 116.61245,157.61829 h 15.62384 c 1.35467,0 1.85138,-0.58702 1.85138,-1.85138 0,-3.16089 -1.17404,-6.14116 -3.29636,-8.21832 -1.94169,-1.94169 -4.83165,-3.16089 -8.26347,-3.16089 -6.8185,0 -11.83077,5.05742 -11.83077,11.87592 0,7.2249 5.50898,11.87592 12.28232,11.87592 3.20605,0 7.2249,-1.08373 9.52784,-3.43182 0.49671,-0.54187 0.85795,-1.2192 0,-2.07716 l -1.08374,-1.08373 c -0.72249,-0.76765 -1.35467,-0.63218 -2.16747,0 -1.98684,1.53529 -3.97369,2.032 -5.73476,2.032 -3.47698,0 -6.54756,-2.12232 -6.90881,-5.96054 z m 5.82508,-8.80534 c 1.71591,0 3.16089,0.58702 4.15431,1.67075 0.85796,0.85796 1.39983,2.03201 1.6256,3.43183 h -11.55983 c 0.45156,-3.11574 2.66418,-5.10258 5.77992,-5.10258 z" />
        <path
           id="text1"
           style="font-weight:600;font-size:45.1556px;font-family:Goldplay;-inkscape-font-specification:'Goldplay, Semi-Bold';stroke-width:0.265"
           d="m 104.46567,155.45082 c 3.79307,-1.2192 6.14116,-4.01885 6.14116,-8.12801 0,-5.64445 -3.83822,-9.12143 -11.108275,-9.12143 H 89.067611 c -1.12889,0 -1.806224,0.63218 -1.806224,1.76107 v 25.78385 c 0,1.12889 0.632179,1.80622 1.761069,1.80622 h 2.619024 c 1.12889,0 1.715913,-0.67733 1.715913,-1.80622 v -9.57299 h 4.967116 l 5.418671,9.75361 c 0.63218,1.12889 0.90311,1.6256 2.07716,1.6256 h 3.29636 c 1.08373,0 1.71591,-0.63218 1.08373,-1.80622 z M 93.357393,143.25881 h 6.412096 c 2.799651,0 4.605871,1.71591 4.605871,4.33493 0,2.57387 -1.80622,4.24463 -4.605871,4.24463 h -6.412096 z" />
      </g>
    </g>
    <path
       style="font-weight:500;font-size:16.9333px;font-family:Goldplay;-inkscape-font-specification:'Goldplay, Medium';fill:#FFFFFF;stroke-width:0.265"
       d="m 113.40207,176.31981 h 0.44026 c 0.3048,0 0.4572,-0.2032 0.4572,-0.508 v -9.29638 h 3.13266 c 0.32174,0 0.508,-0.16933 0.508,-0.47413 v -0.254 c 0,-0.3048 -0.18626,-0.47414 -0.508,-0.47414 h -7.63692 c -0.3048,0 -0.49106,0.16934 -0.49106,0.47414 v 0.254 c 0,0.3048 0.18626,0.47413 0.49106,0.47413 h 3.13266 v 9.29638 c 0,0.3048 0.16934,0.508 0.47414,0.508 z m 9.97371,-8.66985 c -1.18533,0 -2.11666,0.44027 -2.72626,1.18533 v -4.13172 c 0,-0.3556 -0.1524,-0.5588 -0.52493,-0.4572 l -0.3556,0.0847 c -0.3048,0.0847 -0.4572,0.23707 -0.4572,0.49107 v 11.00664 c 0,0.28787 0.16933,0.49107 0.4572,0.49107 h 0.42333 c 0.28786,0 0.4572,-0.2032 0.4572,-0.49107 v -4.53812 c 0,-1.49013 1.03293,-2.45533 2.48919,-2.45533 1.43933,0 2.35373,0.9652 2.35373,2.45533 v 4.53812 c 0,0.28787 0.16933,0.49107 0.4572,0.49107 h 0.42333 c 0.28787,0 0.4572,-0.2032 0.4572,-0.49107 v -4.65665 c 0,-2.06587 -1.3208,-3.52213 -3.45439,-3.52213 z m 5.65571,4.80906 h 6.53625 c 0.33867,0 0.57574,-0.22014 0.57574,-0.54187 0,-1.20226 -0.44027,-2.31986 -1.27,-3.13266 -0.72813,-0.7112 -1.74413,-1.13453 -2.9464,-1.13453 -2.43839,0 -4.26719,1.91346 -4.26719,4.47039 0,2.794 2.16747,4.40266 4.48733,4.40266 1.016,0 2.45533,-0.32173 3.47132,-1.30387 0.16934,-0.16933 0.28787,-0.40639 0.0339,-0.67733 l -0.16933,-0.1524 c -0.2032,-0.22013 -0.42334,-0.254 -0.72813,0 -0.9144,0.762 -1.86267,0.9652 -2.60773,0.9652 -1.54093,0 -2.96333,-1.03293 -3.11573,-2.89559 z m 2.89559,-3.64066 c 0.8636,0 1.5748,0.28786 2.06587,0.82973 0.4064,0.4064 0.67733,0.99906 0.77893,1.69333 h -5.72346 c 0.22014,-1.54093 1.33773,-2.52306 2.87866,-2.52306 z m 13.20794,7.70465 c 2.25213,0 3.8608,-1.20227 3.8608,-3.0988 0,-2.43839 -2.286,-2.91252 -4.13173,-3.58985 -1.13453,-0.42334 -2.15053,-0.8128 -2.15053,-1.86267 0,-0.98213 0.94827,-1.64253 2.26906,-1.64253 1.08373,0 1.89653,0.4572 2.54,1.1176 0.28786,0.28787 0.54186,0.16933 0.762,-0.0339 l 0.1524,-0.13546 c 0.32173,-0.28787 0.16933,-0.54187 -0.0339,-0.762 -0.77893,-0.82973 -1.9304,-1.40547 -3.43746,-1.40547 -2.1844,0 -3.65759,1.25307 -3.65759,2.98027 0,1.84572 1.64253,2.50612 2.81093,2.94639 1.81186,0.67733 3.47132,0.88053 3.47132,2.43839 0,1.03294 -0.9652,1.81187 -2.52306,1.81187 -1.016,0 -2.35373,-0.49107 -3.09879,-1.50707 -0.254,-0.33866 -0.508,-0.22013 -0.77894,0 l -0.11853,0.11854 c -0.32173,0.254 -0.2032,0.52493 -0.0169,0.77893 0.88053,1.25306 2.50613,1.84573 4.08092,1.84573 z m 9.33023,0 c 2.5908,0 4.50426,-1.9304 4.50426,-4.43653 0,-2.50612 -1.91346,-4.43652 -4.50426,-4.43652 -2.59079,0 -4.50425,1.9304 -4.50425,4.43652 0,2.50613 1.91346,4.43653 4.50425,4.43653 z m 0,-1.20227 c -1.84573,0 -3.14959,-1.37159 -3.14959,-3.23426 0,-1.86266 1.3208,-3.23426 3.14959,-3.23426 1.84573,0 3.1496,1.3716 3.1496,3.23426 0,1.86267 -1.30387,3.23426 -3.1496,3.23426 z m 9.83825,1.20227 c 1.03293,0 2.2352,-0.23707 3.28506,-1.27 0.16934,-0.18627 0.28787,-0.42333 0.0339,-0.67733 l -0.18627,-0.18627 c -0.22013,-0.2032 -0.44026,-0.27093 -0.72813,0 -0.98213,0.88053 -1.77799,0.93133 -2.38759,0.93133 -1.9304,0 -3.16653,-1.38853 -3.16653,-3.21732 0,-1.8796 1.30386,-3.2512 3.16653,-3.2512 0.6096,0 1.40546,0.0508 2.38759,0.93134 0.28787,0.27093 0.508,0.18626 0.72813,0 l 0.18627,-0.18627 c 0.254,-0.254 0.13547,-0.508 -0.0339,-0.67733 -1.04986,-1.03293 -2.25213,-1.27 -3.28506,-1.27 -2.60772,0 -4.50425,1.9304 -4.50425,4.43652 0,2.50613 1.89653,4.43653 4.50425,4.43653 z m 5.41864,-10.31238 c 0.57573,0 1.04986,-0.4572 1.04986,-1.04987 0,-0.57573 -0.47413,-1.04986 -1.04986,-1.04986 -0.57573,0 -1.04986,0.47413 -1.04986,1.04986 0,0.59267 0.47413,1.04987 1.04986,1.04987 z m -0.22013,10.10918 h 0.42333 c 0.28787,0 0.4572,-0.2032 0.4572,-0.49107 v -7.56918 c 0,-0.3048 -0.16933,-0.49107 -0.4572,-0.49107 h -0.42333 c -0.28787,0 -0.4572,0.18627 -0.4572,0.49107 v 7.56918 c 0,0.28787 0.16933,0.49107 0.4572,0.49107 z m 6.02825,-8.66985 c -1.08373,0 -2.04893,0.22013 -3.23426,1.04986 -0.23706,0.16934 -0.3556,0.4572 -0.13546,0.74507 l 0.10159,0.13547 c 0.16934,0.22013 0.37254,0.32173 0.64347,0.11853 0.82973,-0.62653 1.76106,-0.88053 2.55693,-0.88053 1.38853,0 2.31986,0.8128 2.31986,2.04893 v 0.67733 c -0.7112,-0.33867 -1.55786,-0.6096 -2.55693,-0.6096 -2.15053,0 -3.58986,1.13453 -3.58986,2.82786 0,1.65946 1.3208,2.76013 3.28506,2.76013 1.13453,0 2.20133,-0.49107 2.91253,-1.3208 v 0.62653 c 0,0.28787 0.1524,0.49107 0.4572,0.49107 h 0.33867 c 0.3048,0 0.44026,-0.16933 0.44026,-0.49107 v -4.70745 c 0,-2.2352 -1.30386,-3.47133 -3.53906,-3.47133 z m -0.4572,7.72158 c -1.25306,0 -2.09973,-0.62653 -2.09973,-1.59173 0,-1.03293 0.9144,-1.74413 2.30293,-1.74413 1.03293,0 1.9812,0.38947 2.52306,0.6604 v 0.54187 c 0,1.3208 -1.37159,2.13359 -2.72626,2.13359 z m 6.45159,0.94827 h 0.42333 c 0.28787,0 0.4572,-0.2032 0.4572,-0.49107 v -11.12517 c 0,-0.3556 -0.1524,-0.5588 -0.52493,-0.4572 l -0.3556,0.0847 c -0.3048,0.0847 -0.4572,0.23707 -0.4572,0.49107 v 11.00664 c 0,0.28787 0.16933,0.49107 0.4572,0.49107 z m 11.78554,0.2032 c 1.74413,0 3.26813,-0.72813 4.30106,-1.91346 0.2032,-0.2032 0.16933,-0.44027 -0.0677,-0.62654 l -0.28787,-0.23706 c -0.23707,-0.18627 -0.4572,-0.13547 -0.67733,0.1016 -0.8128,0.88053 -1.9304,1.42239 -3.23426,1.42239 -2.45533,0 -4.36879,-1.86266 -4.36879,-4.45345 0,-2.5908 1.91346,-4.45346 4.36879,-4.45346 1.30386,0 2.40453,0.54186 3.23426,1.4224 0.22013,0.23706 0.44026,0.28786 0.67733,0.1016 l 0.28787,-0.23707 c 0.23706,-0.18627 0.27093,-0.42333 0.0677,-0.64347 -1.03293,-1.16839 -2.55693,-1.89653 -4.30106,-1.89653 -3.20039,0 -5.72345,2.4384 -5.72345,5.70653 0,3.26812 2.52306,5.70652 5.72345,5.70652 z m 12.39516,-8.75452 h -0.44027 c -0.28786,0 -0.44026,0.18627 -0.44026,0.49107 v 4.62279 c 0,1.49013 -0.93134,2.45533 -2.37067,2.45533 -1.35466,0 -2.25213,-0.94827 -2.25213,-2.35373 v -4.72439 c 0,-0.3048 -0.1524,-0.49107 -0.44026,-0.49107 h -0.44027 c -0.28786,0 -0.4572,0.18627 -0.4572,0.49107 v 4.75826 c 0,2.09972 1.33773,3.50519 3.3528,3.50519 1.21919,0 2.11666,-0.47413 2.69239,-1.23613 v 0.54186 c 0,0.28787 0.16933,0.49107 0.4572,0.49107 h 0.33867 c 0.28786,0 0.4572,-0.2032 0.4572,-0.49107 v -7.56918 c 0,-0.3048 -0.16934,-0.49107 -0.4572,-0.49107 z m 6.43464,-0.0169 c -0.28787,-0.0677 -0.47413,-0.1016 -0.8636,-0.1016 -1.016,0 -1.74413,0.508 -2.20133,1.3208 v -0.7112 c 0,-0.3048 -0.16933,-0.49107 -0.4572,-0.49107 h -0.33866 c -0.28787,0 -0.4572,0.18627 -0.4572,0.49107 v 7.56918 c 0,0.28787 0.16933,0.49107 0.4572,0.49107 h 0.42333 c 0.3048,0 0.4572,-0.2032 0.4572,-0.49107 v -4.35185 c 0,-1.524 0.74507,-2.6416 1.99813,-2.6416 0.2032,0 0.38947,0.0339 0.59266,0.1016 0.254,0.0677 0.508,0.0339 0.6096,-0.3048 l 0.0677,-0.27093 c 0.11853,-0.4064 -0.0508,-0.54187 -0.28787,-0.6096 z m 4.92756,0 c -0.28787,-0.0677 -0.47413,-0.1016 -0.8636,-0.1016 -1.016,0 -1.74413,0.508 -2.20133,1.3208 v -0.7112 c 0,-0.3048 -0.16933,-0.49107 -0.4572,-0.49107 h -0.33866 c -0.28787,0 -0.4572,0.18627 -0.4572,0.49107 v 7.56918 c 0,0.28787 0.16933,0.49107 0.4572,0.49107 h 0.42333 c 0.3048,0 0.4572,-0.2032 0.4572,-0.49107 v -4.35185 c 0,-1.524 0.74506,-2.6416 1.99813,-2.6416 0.2032,0 0.38946,0.0339 0.59266,0.1016 0.254,0.0677 0.508,0.0339 0.6096,-0.3048 l 0.0677,-0.27093 c 0.11853,-0.4064 -0.0508,-0.54187 -0.28787,-0.6096 z m 0.9821,4.70746 h 6.53626 c 0.33866,0 0.57573,-0.22014 0.57573,-0.54187 0,-1.20226 -0.44027,-2.31986 -1.27,-3.13266 -0.72813,-0.7112 -1.74413,-1.13453 -2.94639,-1.13453 -2.4384,0 -4.26719,1.91346 -4.26719,4.47039 0,2.794 2.16746,4.40266 4.48732,4.40266 1.016,0 2.45533,-0.32173 3.47133,-1.30387 0.16933,-0.16933 0.28786,-0.40639 0.0339,-0.67733 l -0.16933,-0.1524 c -0.2032,-0.22013 -0.42333,-0.254 -0.72813,0 -0.9144,0.762 -1.86266,0.9652 -2.60773,0.9652 -1.54093,0 -2.96333,-1.03293 -3.11573,-2.89559 z m 2.8956,-3.64066 c 0.8636,0 1.5748,0.28786 2.06586,0.82973 0.4064,0.4064 0.67733,0.99906 0.77893,1.69333 h -5.72345 c 0.22013,-1.54093 1.33773,-2.52306 2.87866,-2.52306 z m 9.65196,-1.1684 c -1.25306,0 -2.21826,0.49107 -2.81093,1.30386 v -0.69426 c 0,-0.3048 -0.16933,-0.49107 -0.4572,-0.49107 h -0.33866 c -0.28787,0 -0.4572,0.18627 -0.4572,0.49107 v 7.56918 c 0,0.28787 0.16933,0.49107 0.4572,0.49107 h 0.42333 c 0.3048,0 0.4572,-0.2032 0.4572,-0.49107 v -4.53812 c 0,-1.49013 1.03293,-2.45533 2.48919,-2.45533 1.43934,0 2.35373,0.9652 2.35373,2.45533 v 4.53812 c 0,0.28787 0.16934,0.49107 0.4572,0.49107 h 0.42334 c 0.30479,0 0.45719,-0.2032 0.45719,-0.49107 v -4.65665 c 0,-2.06587 -1.32079,-3.52213 -3.45439,-3.52213 z m 8.80531,8.87305 c 1.03293,0 2.2352,-0.23707 3.28506,-1.27 0.16933,-0.18627 0.28787,-0.42333 0.0339,-0.67733 l -0.18627,-0.18627 c -0.22013,-0.2032 -0.44026,-0.27093 -0.72813,0 -0.98213,0.88053 -1.778,0.93133 -2.3876,0.93133 -1.93039,0 -3.16652,-1.38853 -3.16652,-3.21732 0,-1.8796 1.30386,-3.2512 3.16652,-3.2512 0.6096,0 1.40547,0.0508 2.3876,0.93134 0.28787,0.27093 0.508,0.18626 0.72813,0 l 0.18627,-0.18627 c 0.254,-0.254 0.13546,-0.508 -0.0339,-0.67733 -1.04986,-1.03293 -2.25213,-1.27 -3.28506,-1.27 -2.60773,0 -4.50426,1.9304 -4.50426,4.43652 0,2.50613 1.89653,4.43653 4.50426,4.43653 z m 11.32832,-8.75452 h -0.49107 c -0.30479,0 -0.45719,0.16934 -0.57573,0.47413 l -2.55693,6.07906 -2.55692,-6.07906 c -0.11854,-0.30479 -0.27094,-0.47413 -0.57574,-0.47413 h -0.57573 c -0.27093,0 -0.42333,0.22014 -0.32173,0.47413 l 3.30199,7.60306 -0.67733,1.54093 c -0.37253,0.8636 -0.6604,1.04986 -1.1684,1.04986 -0.2032,0 -0.44026,-0.0677 -0.62653,-0.1524 -0.3556,-0.16933 -0.62653,-0.0677 -0.72813,0.22013 l -0.0677,0.1524 c -0.11854,0.32174 0.0847,0.47414 0.27093,0.59267 0.28786,0.16933 0.7112,0.28787 1.1684,0.28787 1.16839,0 1.72719,-0.52494 2.38759,-2.01507 l 4.09786,-9.27945 c 0.11853,-0.25399 -0.0339,-0.47413 -0.3048,-0.47413 z"
       id="tag"
       aria-label="The Social Currency" />
  </g>
</svg>
