<?xml version="1.0" encoding="UTF-8" standalone="no"?>
<!-- Created with Inkscape (http://www.inkscape.org/) -->

<svg
   width="1015"
   height="256"
   viewBox="0 0 268.55209 67.733334"
   version="1.1"
   id="svg1"
   inkscape:version="1.4 (e7c3feb, 2024-10-09)"
   sodipodi:docname="ReddCoin-Logo-Black.svg"
   xmlns:inkscape="http://www.inkscape.org/namespaces/inkscape"
   xmlns:sodipodi="http://sodipodi.sourceforge.net/DTD/sodipodi-0.dtd"
   xmlns="http://www.w3.org/2000/svg"
   xmlns:svg="http://www.w3.org/2000/svg">
  <sodipodi:namedview
     id="namedview1"
     pagecolor="#ffffff"
     bordercolor="#000000"
     borderopacity="0.25"
     inkscape:showpageshadow="2"
     inkscape:pageopacity="0.0"
     inkscape:pagecheckerboard="0"
     inkscape:deskcolor="#d1d1d1"
     inkscape:document-units="px"
     showguides="true"
     inkscape:zoom="8.2229379"
     inkscape:cx="69.19668"
     inkscape:cy="251.85646"
     inkscape:window-width="2230"
     inkscape:window-height="1211"
     inkscape:window-x="1751"
     inkscape:window-y="316"
     inkscape:window-maximized="0"
     inkscape:current-layer="layer1">
    <sodipodi:guide
       position="31.332414,0"
       orientation="0,-1"
       id="guide4"
       inkscape:locked="false" />
    <sodipodi:guide
       position="18.135898,67.733327"
       orientation="0,-1"
       id="guide7"
       inkscape:locked="false" />
    <sodipodi:guide
       position="0.016720757,69.338523"
       orientation="1,0"
       id="guide8"
       inkscape:locked="false" />
  </sodipodi:namedview>
  <defs
     id="defs1">
    <rect
       x="-376.34979"
       y="-223.19798"
       width="1162.2917"
       height="541.96747"
       id="rect2" />
    <clipPath
       clipPathUnits="userSpaceOnUse"
       id="clipPath72">
      <path
         d="M 0,198 H 522 V 0 H 0 Z"
         transform="translate(-55.024426,-19.550798)"
         id="path72" />
    </clipPath>
    <clipPath
       clipPathUnits="userSpaceOnUse"
       id="clipPath70">
      <path
         d="M 0,198 H 522 V 0 H 0 Z"
         transform="translate(-49.941376,-22.699201)"
         id="path70" />
    </clipPath>
    <clipPath
       clipPathUnits="userSpaceOnUse"
       id="clipPath68">
      <path
         d="M 0,198 H 522 V 0 H 0 Z"
         transform="translate(-155.14553,-25.419901)"
         id="path68" />
    </clipPath>
    <clipPath
       clipPathUnits="userSpaceOnUse"
       id="clipPath66">
      <path
         d="M 0,198 H 522 V 0 H 0 Z"
         transform="translate(-192.21293,-99.000002)"
         id="path66" />
    </clipPath>
    <clipPath
       clipPathUnits="userSpaceOnUse"
       id="clipPath64">
      <path
         d="M 0,198 H 522 V 0 H 0 Z"
         transform="translate(-115.61333,-189.3555)"
         id="path64" />
    </clipPath>
    <clipPath
       clipPathUnits="userSpaceOnUse"
       id="clipPath62">
      <path
         d="M 0,198 H 522 V 0 H 0 Z"
         transform="translate(-9.0596252,-96.003902)"
         id="path62" />
    </clipPath>
    <clipPath
       clipPathUnits="userSpaceOnUse"
       id="clipPath60">
      <path
         d="M 0,198 H 522 V 0 H 0 Z"
         transform="translate(-138.0225,-87.3994)"
         id="path60" />
    </clipPath>
    <clipPath
       clipPathUnits="userSpaceOnUse"
       id="clipPath58">
      <path
         d="M 0,198 H 522 V 0 H 0 Z"
         transform="translate(-51.236326,-113.4072)"
         id="path58" />
    </clipPath>
  </defs>
  <g
     inkscape:label="Layer 1"
     inkscape:groupmode="layer"
     id="layer1"
     transform="translate(-9.8309213,-116.78877)">
    <g
       id="pinwheel"
       transform="matrix(0.24057092,0,0,0.23868518,9.0503765,116.30544)"
       style="display:inline">
      <path
         id="path57"
         d="M 0,0 71.456,29.484 58.403,76.736 c -3.107,0.312 -6.08,0.465 -9.035,0.465 -31.711,0 -60.512,-15.901 -77.43,-42.64 z"
         style="fill:#0D0D0D;fill-opacity:1;fill-rule:nonzero;stroke:none"
         transform="matrix(1.4409468,0,0,-1.4409348,72.853547,123.24025)"
         clip-path="url(#clipPath58)" />
      <path
         id="path59"
         d="m 0,0 -13.841,50.105 -69.296,-28.594 42,-51.727 z"
         style="fill:#0D0D0D;fill-opacity:1;fill-rule:nonzero;stroke:none"
         transform="matrix(1.4409468,0,0,-1.4409348,197.90781,160.71579)"
         clip-path="url(#clipPath60)" />
      <path
         id="path61"
         d="M 0,0 36.824,15.193 11.111,46.862 C 3.791,33.457 -0.06,18.376 -0.06,2.996 -0.06,2.029 -0.042,1.042 0,0"
         style="fill:#0D0D0D;fill-opacity:1;fill-rule:nonzero;stroke:none"
         transform="matrix(1.4409468,0,0,-1.4409348,12.079163,148.31731)"
         clip-path="url(#clipPath62)" />
      <path
         id="path63"
         d="m 0,0 27.194,-98.439 45.777,33.625 C 63.222,-31.214 34.4,-5.717 0,0"
         style="fill:#0D0D0D;fill-opacity:1;fill-rule:nonzero;stroke:none"
         transform="matrix(1.4409468,0,0,-1.4409348,165.61739,13.803713)"
         clip-path="url(#clipPath64)" />
      <path
         id="path65"
         d="m 0,0 c 0,6.637 -0.723,13.262 -2.15,19.742 l -45.674,-33.549 15.476,-56.024 C -11.737,-52.361 0,-27.143 0,0"
         style="fill:#0D0D0D;fill-opacity:1;fill-rule:nonzero;stroke:none"
         transform="matrix(1.4409468,0,0,-1.4409348,275.99334,144.00012)"
         clip-path="url(#clipPath66)" />
      <path
         id="path67"
         d="M 0,0 -15.542,56.257 -54.76,27.451 -22.524,-12.25 C -14.479,-9.249 -6.918,-5.136 0,0"
         style="fill:#0D0D0D;fill-opacity:1;fill-rule:nonzero;stroke:none"
         transform="matrix(1.4409468,0,0,-1.4409348,222.58118,250.02419)"
         clip-path="url(#clipPath68)" />
      <path
         id="path69"
         d="M 0,0 42.467,31.196 -0.408,84.002 -40.491,67.464 C -37.862,40.204 -22.877,15.23 0,0"
         style="fill:#0D0D0D;fill-opacity:1;fill-rule:nonzero;stroke:none"
         transform="matrix(1.4409468,0,0,-1.4409348,70.987595,253.9446)"
         clip-path="url(#clipPath70)" />
      <path
         id="path71"
         d="m 0,0 c 13.849,-7.967 29.521,-12.159 45.58,-12.159 8.981,0 17.843,1.306 26.404,3.889 L 40.885,30.031 Z"
         style="fill:#0D0D0D;fill-opacity:1;fill-rule:nonzero;stroke:none"
         transform="matrix(1.4409468,0,0,-1.4409348,78.312,258.48123)"
         clip-path="url(#clipPath72)" />
    </g>
    <g
       id="Coin"
       style="fill:#0D0D0D"
       transform="translate(-3.3654127,-1.0090061)">
      <path
         style="font-weight:600;font-size:45.1556px;font-family:Goldplay;-inkscape-font-specification:'Goldplay, Semi-Bold';stroke-width:0.265"
         d="m 270.32175,144.38775 c -3.34151,0 -5.73476,1.44498 -7.22489,3.61245 v -1.5353 c 0,-1.08373 -0.63218,-1.71591 -1.71592,-1.71591 h -1.71591 c -1.08373,0 -1.71591,0.63218 -1.71591,1.71591 v 19.3266 c 0,1.08374 0.63218,1.76107 1.71591,1.76107 h 2.61903 c 1.08373,0 1.67075,-0.67733 1.67075,-1.76107 v -11.2889 c 0,-2.98027 1.98685,-4.96711 4.92196,-4.96711 2.93512,0 4.74134,1.98684 4.74134,4.96711 v 11.2889 c 0,1.08374 0.63218,1.76107 1.71592,1.76107 h 2.61902 c 1.08373,0 1.67076,-0.67733 1.67076,-1.76107 V 154.051 c 0,-5.77992 -3.70276,-9.6633 -9.30206,-9.6633 z"
         id="path20" />
      <path
         id="path18"
         style="font-weight:600;font-size:45.1556px;font-family:Goldplay;-inkscape-font-specification:'Goldplay, Semi-Bold';stroke-width:0.265"
         d="m 250.72427,140.95592 c 2.12232,0 3.88339,-1.71591 3.88339,-3.88338 0,-2.12231 -1.76107,-3.88338 -3.88339,-3.88338 -2.16746,0 -3.88338,1.76107 -3.88338,3.88338 0,2.16747 1.71592,3.88338 3.88338,3.88338 z m -1.30951,26.59665 h 2.61903 c 1.08373,0 1.67075,-0.67733 1.67075,-1.76107 v -19.3266 c 0,-1.08373 -0.58702,-1.71591 -1.67075,-1.71591 h -2.61903 c -1.08373,0 -1.71591,0.63218 -1.71591,1.71591 v 19.3266 c 0,1.08374 0.63218,1.76107 1.71591,1.76107 z" />
      <path
         id="path16"
         style="font-weight:600;font-size:45.1556px;font-family:Goldplay;-inkscape-font-specification:'Goldplay, Semi-Bold';stroke-width:0.265"
         d="m 232.07503,168.13959 c 7.13459,0 12.32748,-5.10258 12.32748,-11.87592 0,-6.77334 -5.19289,-11.87592 -12.32748,-11.87592 -7.13458,0 -12.37263,5.10258 -12.37263,11.87592 0,6.77334 5.23805,11.87592 12.37263,11.87592 z m 0,-5.23805 c -3.74791,0 -6.41209,-2.79964 -6.41209,-6.63787 0,-3.83823 2.70933,-6.68303 6.41209,-6.68303 3.70276,0 6.36694,2.8448 6.36694,6.68303 0,3.83823 -2.66418,6.63787 -6.36694,6.63787 z" />
      <path
         style="font-weight:600;font-size:45.1556px;font-family:Goldplay;-inkscape-font-specification:'Goldplay, Semi-Bold';stroke-width:0.265"
         d="m 206.8783,168.09439 c 4.56071,0 8.53441,-1.76107 11.2889,-4.69618 0.8128,-0.76765 0.76764,-1.71592 -0.0903,-2.43841 l -1.62561,-1.35467 c -0.85795,-0.72248 -1.6256,-0.63217 -2.48355,0.13547 -1.80623,1.76107 -4.24463,2.8448 -6.99912,2.8448 -5.37352,0 -9.57299,-4.064 -9.57299,-9.70845 0,-5.64445 4.19947,-9.70845 9.57299,-9.70845 2.75449,0 5.14774,1.08373 6.99912,2.8448 0.85795,0.72249 1.6256,0.8128 2.48355,0.13547 l 1.62561,-1.39983 c 0.85795,-0.67733 0.90311,-1.6256 0.0903,-2.4384 -2.75449,-2.88996 -6.72819,-4.65103 -11.24375,-4.65103 -8.8505,0 -15.7593,6.50241 -15.7593,15.21744 0,8.71503 6.9088,15.21744 15.71415,15.21744 z"
         id="path15" />
    </g>
    <g
       id="Redd"
       style="fill:#0D0D0D"
       transform="translate(-3.3654127,-1.0090061)">
      <path
         id="path13"
         style="font-weight:600;font-size:45.1556px;font-family:Goldplay;-inkscape-font-specification:'Goldplay, Semi-Bold';stroke-width:0.265"
         d="m 185.7004,135.35658 -2.52871,0.45155 c -1.08373,0.27094 -1.67076,0.72249 -1.67076,1.76107 v 9.03112 c -1.85138,-1.35467 -4.15431,-2.21262 -6.72818,-2.21262 -6.63788,0 -11.37921,5.19289 -11.37921,11.87592 0,6.63787 4.74133,11.87592 11.37921,11.87592 3.16089,0 5.73476,-1.30951 7.54098,-3.29636 v 0.94827 c 0,1.08374 0.58703,1.76107 1.67076,1.76107 h 1.80622 c 1.08374,0 1.71592,-0.67733 1.71592,-1.76107 v -28.76412 c 0,-1.17404 -0.58703,-1.89653 -1.80623,-1.67075 z m -10.0697,27.54491 c -3.79307,0 -6.27662,-2.93511 -6.27662,-6.63787 0,-3.70276 2.48355,-6.68303 6.27662,-6.68303 3.43183,0 6.23148,2.39325 6.23148,6.68303 0,4.24463 -2.79965,6.63787 -6.23148,6.63787 z" />
      <path
         id="path11"
         style="font-weight:600;font-size:45.1556px;font-family:Goldplay;-inkscape-font-specification:'Goldplay, Semi-Bold';stroke-width:0.265"
         d="m 158.11041,135.35658 -2.52871,0.45155 c -1.08373,0.27094 -1.67076,0.72249 -1.67076,1.76107 v 9.03112 c -1.85138,-1.35467 -4.15431,-2.21262 -6.72818,-2.21262 -6.63787,0 -11.37921,5.19289 -11.37921,11.87592 0,6.63787 4.74134,11.87592 11.37921,11.87592 3.16089,0 5.73476,-1.30951 7.54098,-3.29636 v 0.94827 c 0,1.08374 0.58703,1.76107 1.67076,1.76107 h 1.80623 c 1.08373,0 1.71591,-0.67733 1.71591,-1.76107 v -28.76412 c 0,-1.17404 -0.58702,-1.89653 -1.80623,-1.67075 z m -10.06969,27.54491 c -3.79307,0 -6.27663,-2.93511 -6.27663,-6.63787 0,-3.70276 2.48356,-6.68303 6.27663,-6.68303 3.43182,0 6.23147,2.39325 6.23147,6.68303 0,4.24463 -2.79965,6.63787 -6.23147,6.63787 z" />
      <path
         id="path9"
         style="font-weight:600;font-size:45.1556px;font-family:Goldplay;-inkscape-font-specification:'Goldplay, Semi-Bold';stroke-width:0.265"
         d="m 116.61245,157.61829 h 15.62384 c 1.35467,0 1.85138,-0.58702 1.85138,-1.85138 0,-3.16089 -1.17404,-6.14116 -3.29636,-8.21832 -1.94169,-1.94169 -4.83165,-3.16089 -8.26347,-3.16089 -6.8185,0 -11.83077,5.05742 -11.83077,11.87592 0,7.2249 5.50898,11.87592 12.28232,11.87592 3.20605,0 7.2249,-1.08373 9.52784,-3.43182 0.49671,-0.54187 0.85795,-1.2192 0,-2.07716 l -1.08374,-1.08373 c -0.72249,-0.76765 -1.35467,-0.63218 -2.16747,0 -1.98684,1.53529 -3.97369,2.032 -5.73476,2.032 -3.47698,0 -6.54756,-2.12232 -6.90881,-5.96054 z m 5.82508,-8.80534 c 1.71591,0 3.16089,0.58702 4.15431,1.67075 0.85796,0.85796 1.39983,2.03201 1.6256,3.43183 h -11.55983 c 0.45156,-3.11574 2.66418,-5.10258 5.77992,-5.10258 z" />
      <path
         id="text1"
         style="font-weight:600;font-size:45.1556px;font-family:Goldplay;-inkscape-font-specification:'Goldplay, Semi-Bold';stroke-width:0.265"
         d="m 104.46567,155.45082 c 3.79307,-1.2192 6.14116,-4.01885 6.14116,-8.12801 0,-5.64445 -3.83822,-9.12143 -11.108275,-9.12143 H 89.067611 c -1.12889,0 -1.806224,0.63218 -1.806224,1.76107 v 25.78385 c 0,1.12889 0.632179,1.80622 1.761069,1.80622 h 2.619024 c 1.12889,0 1.715913,-0.67733 1.715913,-1.80622 v -9.57299 h 4.967116 l 5.418671,9.75361 c 0.63218,1.12889 0.90311,1.6256 2.07716,1.6256 h 3.29636 c 1.08373,0 1.71591,-0.63218 1.08373,-1.80622 z M 93.357393,143.25881 h 6.412096 c 2.799651,0 4.605871,1.71591 4.605871,4.33493 0,2.57387 -1.80622,4.24463 -4.605871,4.24463 h -6.412096 z" />
    </g>
    <text
       xml:space="preserve"
       transform="matrix(0.26458333,0,0,0.26458333,89.27676,129.44991)"
       id="text2"
       style="font-weight:600;font-size:170.667px;font-family:Goldplay;-inkscape-font-specification:'Goldplay, Semi-Bold';text-align:start;writing-mode:lr-tb;direction:ltr;white-space:pre;shape-inside:url(#rect2);display:inline;fill:#0D0D0D;stroke-width:1.00157" />
  </g>
</svg>
